# xmcd
#
# Track frame offsets:
# 150
# 20027
# 34129
# 46566
# 57819
# 71075
# 85630
# 103393
# 115555
# 130256
# 143522
# 157478
# 167574
# 181227
# 196416
# 208644
# 222600
# 237350
# 258421
# 269075
#
# Disc length: 3721 seconds
#
#
# Revision: 0
# Processed by: cddbd v1.5.2PL0 Copyright (c) Steve Scherf et al.
# Submitted via: FreeRIP 2.80 
#
DISCID=2a0e8714
DTITLE=David Jones - Everything You Feel
DYEAR=1900
DGENRE=Country
TTITLE0=Doddy Don't You Miss Me
TTITLE1=Everything You Feel
TTITLE2=Honky Tonk Angel
TTITLE3=Honky Tonk Crowd
TTITLE4=I'm All I've Got Left
TTITLE5=Letter
TTITLE6=Living Together Alone
TTITLE7=Loved On Look
TTITLE8=Mary-go-round
TTITLE9=Nothing Last Forever
TTITLE10=Tears Outweigh the Whiskey
TTITLE11=The Fall
TTITLE12=Walkin' Away
TTITLE13=What's He Got I Ain't
TTITLE14=You Don't Miss What You've Got
TTITLE15=Your're Nolonger Mine
TTITLE16=Bad Habit
TTITLE17=Blues After Sundown
TTITLE18=Box of Us
TTITLE19=Bridges
EXTD=
EXTT0=
EXTT1=
EXTT2=
EXTT3=
EXTT4=
EXTT5=
EXTT6=
EXTT7=
EXTT8=
EXTT9=
EXTT10=
EXTT11=
EXTT12=
EXTT13=
EXTT14=
EXTT15=
EXTT16=
EXTT17=
EXTT18=
EXTT19=
PLAYORDER=
